<?xml version="1.0" encoding="UTF-8"?>
<!DOCTYPE svg PUBLIC "-//W3C//DTD SVG 1.1//EN" "http://www.w3.org/Graphics/SVG/1.1/DTD/svg11.dtd">
<svg width="220pt" height="233pt" viewBox="0 0 220 233" version="1.1" xmlns="http://www.w3.org/2000/svg">
<g id="#4be14eff">
<path fill="#4be14e" opacity="1.00" d=" M 106.10 7.03 C 139.87 24.39 173.84 41.38 207.52 58.90 C 174.38 59.12 141.22 58.95 108.07 58.99 C 108.02 60.66 107.98 62.34 107.93 64.01 C 73.45 63.93 38.96 64.13 4.48 63.91 C 17.85 56.67 31.55 50.06 44.99 42.95 C 45.02 32.64 44.98 22.32 45.01 12.01 C 57.34 11.99 69.67 11.99 81.99 12.01 C 81.99 15.67 82.00 19.32 82.01 22.98 C 89.99 19.32 98.02 15.75 105.93 11.96 C 105.99 10.32 106.03 8.68 106.10 7.03 Z"/>
<path fill="#4be14e" opacity="1.00" d=" M 115.01 65.01 C 139.00 64.99 163.00 64.99 186.99 65.01 C 187.01 89.00 187.01 113.00 186.99 136.99 C 175.33 137.01 163.67 137.01 152.01 136.99 C 151.98 124.66 152.02 112.34 151.99 100.01 C 139.66 99.98 127.34 100.02 115.01 99.99 C 114.99 88.33 114.99 76.67 115.01 65.01 Z"/>
<path fill="#4be14e" opacity="1.00" d=" M 29.01 69.01 C 53.00 68.99 77.00 68.99 100.99 69.01 C 101.01 93.00 101.01 117.00 100.99 140.99 C 77.00 141.01 53.00 141.01 29.01 140.99 C 28.99 117.00 28.99 93.00 29.01 69.01 Z"/>
<path fill="#4be14e" opacity="1.00" d=" M 109.01 107.01 C 121.00 106.99 133.00 106.99 144.99 107.01 C 145.01 119.00 145.01 131.00 144.99 142.99 C 133.00 143.01 121.00 143.01 109.01 142.99 C 108.99 131.00 108.99 119.00 109.01 107.01 Z"/>
<path fill="#4be14e" opacity="1.00" d=" M 29.01 151.01 C 53.00 150.99 77.00 150.99 100.99 151.01 C 101.01 175.00 101.01 199.00 100.99 222.99 C 77.00 223.01 53.00 223.01 29.01 222.99 C 28.99 199.00 28.99 175.00 29.01 151.01 Z"/>
<path fill="#4be14e" opacity="1.00" d=" M 111.01 151.01 C 135.00 150.99 159.00 150.99 182.99 151.01 C 183.01 175.00 183.01 199.00 182.99 222.99 C 159.00 223.01 135.00 223.01 111.01 222.99 C 110.99 199.00 110.99 175.00 111.01 151.01 Z"/>
</g>
</svg>